<svg xmlns="http://www.w3.org/2000/svg" width="88" height="89" fill="none" viewBox="0 0 88 89"><path fill="#C100C5" d="M78.5714 0H9.42857C4.22321 0 0 4.27121 0 9.53571V79.4643C0 84.7288 4.22321 89 9.42857 89H78.5714C83.7768 89 88 84.7288 88 79.4643V9.53571C88 4.27121 83.7768 0 78.5714 0ZM31.4286 66.75C31.4286 68.5062 30.0221 69.9286 28.2857 69.9286H22C20.2636 69.9286 18.8571 68.5062 18.8571 66.75V41.3214C18.8571 39.5653 20.2636 38.1429 22 38.1429H28.2857C30.0221 38.1429 31.4286 39.5653 31.4286 41.3214V66.75ZM50.2857 66.75C50.2857 68.5062 48.8793 69.9286 47.1429 69.9286H40.8571C39.1207 69.9286 37.7143 68.5062 37.7143 66.75V22.25C37.7143 20.4938 39.1207 19.0714 40.8571 19.0714H47.1429C48.8793 19.0714 50.2857 20.4938 50.2857 22.25V66.75ZM69.1429 66.75C69.1429 68.5062 67.7364 69.9286 66 69.9286H59.7143C57.9779 69.9286 56.5714 68.5062 56.5714 66.75V54.0357C56.5714 52.2796 57.9779 50.8571 59.7143 50.8571H66C67.7364 50.8571 69.1429 52.2796 69.1429 54.0357V66.75Z"/></svg>