<svg xmlns="http://www.w3.org/2000/svg" xmlns:svg="http://www.w3.org/2000/svg" id="svg89" width="483.84" height="165.22" version="1.1" viewBox="0 0 483.84 165.22"><defs id="defs17"><style id="style2">.cls-1{fill:#808285}.cls-2{fill:url(#linear-gradient)}.cls-3{fill:none}</style><linearGradient id="linear-gradient" x1="51.31" x2="224.71" y1="158.74" y2="97.65" gradientUnits="userSpaceOnUse"><stop id="stop4" offset="0" stop-color="#bf9b30"/><stop id="stop6" offset=".18" stop-color="#ffdc73"/><stop id="stop8" offset=".48" stop-color="#ffbf00"/><stop id="stop10" offset=".7" stop-color="#e3b839"/><stop id="stop12" offset=".88" stop-color="#ffcf40"/><stop id="stop14" offset="1" stop-color="#bf9b30"/></linearGradient></defs><g id="Layer_2" data-name="Layer 2" transform="translate(-40.85,-36.42)"><g id="Layer_1-2" data-name="Layer 1"><path id="path19" d="m 240.91,122.08 5.92,-7 c 2,2.63 4.17,4 6.63,4 3.13,0 4.83,-1.91 4.83,-5.59 V 97 H 245 v -8.41 h 24 v 24.23 c 0,10 -5.15,14.9 -14.8,14.9 -5.56,0 -10.33,-1.97 -13.29,-5.64 z"/><path id="path21" d="M 301.25,119.5 H 285 l -3,7.5 h -11.06 l 16.94,-38.37 h 10.69 l 17,38.37 h -11.3 z m -3.18,-8 -4.93,-12.28 -4.93,12.28 z"/><path id="path23" d="m 318.62,88.59 h 10.85 V 127 h -10.85 z"/><path id="path25" d="m 378.85,119.5 h -16.22 l -3,7.46 h -11.09 l 16.94,-38.37 h 10.69 l 17,38.37 h -11.3 z m -3.18,-8 -4.93,-12.28 -4.93,12.28 z"/><path id="path27" d="m 430.86,127 -0.11,-20.34 -9.87,16.55 h -4.82 l -9.81,-16 V 127 h -10 V 88.59 h 8.93 l 13.49,22.14 13.15,-22.14 h 8.94 l 0.11,38.37 z"/><path id="path29" d="m 485,116.43 c 0,6.63 -5.48,10.53 -15.78,10.53 H 448.5 V 88.59 h 19.62 c 10.09,0 15,4.11 15,10 A 9.06,9.06 0 0 1 478,107 c 4.32,1.49 7,4.77 7,9.43 z m -25.76,-20 v 7.4 h 7.46 c 3.62,0 5.48,-1.26 5.48,-3.73 0,-2.47 -1.86,-3.67 -5.48,-3.67 z m 14.8,18.8 c 0,-2.63 -2,-3.9 -5.7,-3.9 h -9.1 v 7.79 h 9.1 c 3.73,0 5.66,-1.26 5.66,-3.89 z"/><path id="path31" d="M 521.45,118.57 V 127 h -30.8 V 88.59 h 30.09 V 97 h -19.35 v 6.46 h 17 v 8.11 h -17 v 7 z"/><path id="path33" d="M 269.57,164.14 H 251 l -3.85,8.75 H 242 l 15.85,-35 h 4.95 l 15.91,35 h -5.25 z m -1.75,-4 -7.56,-17.14 -7.55,17.15 z"/><path id="path35" d="m 285.87,137.88 h 14.76 c 11.25,0 18.9,7.1 18.9,17.5 0,10.4 -7.65,17.51 -18.9,17.51 h -14.76 z m 14.46,30.66 c 8.65,0 14.2,-5.3 14.2,-13.16 0,-7.86 -5.55,-13.15 -14.2,-13.15 h -9.46 v 26.31 z"/><path id="path37" d="m 358.5,137.88 -15.36,35 h -4.95 l -15.41,-35 h 5.4 l 12.61,28.76 12.7,-28.76 z"/><path id="path39" d="m 365,137.88 h 5 v 35 h -5 z"/><path id="path41" d="m 379.25,168.89 1.85,-3.9 a 18,18 0 0 0 11.55,4 c 6.06,0 8.66,-2.35 8.66,-5.4 0,-8.56 -21.21,-3.16 -21.21,-16.16 0,-5.4 4.2,-10 13.4,-10 a 20.6,20.6 0 0 1 11.26,3.1 l -1.65,4 a 18.08,18.08 0 0 0 -9.61,-2.85 c -5.95,0 -8.5,2.5 -8.5,5.55 0,8.55 21.21,3.2 21.21,16.05 0,5.36 -4.3,10 -13.56,10 -5.35,0.01 -10.6,-1.79 -13.4,-4.39 z"/><path id="path43" d="m 412.66,155.38 c 0,-10.25 7.9,-17.9 18.66,-17.9 10.76,0 18.55,7.6 18.55,17.9 0,10.3 -7.9,17.91 -18.55,17.91 -10.65,0 -18.66,-7.65 -18.66,-17.91 z m 32.21,0 a 13.14,13.14 0 0 0 -13.55,-13.45 c -7.86,0 -13.66,5.7 -13.66,13.45 0,7.75 5.8,13.46 13.66,13.46 a 13.15,13.15 0 0 0 13.55,-13.46 z"/><path id="path45" d="m 482.93,172.89 -7.55,-10.76 c -0.7,0.05 -1.45,0.1 -2.2,0.1 h -8.65 v 10.66 h -5 v -35 h 13.66 c 9.1,0 14.61,4.6 14.61,12.2 a 11.05,11.05 0 0 1 -7.71,11 l 8.3,11.76 z m -0.15,-22.81 c 0,-5 -3.35,-7.85 -9.75,-7.85 h -8.5 V 158 H 473 c 6.43,0 9.78,-2.92 9.78,-7.92 z"/><path id="path47" d="m 510.79,160.78 v 12.11 h -5 v -12.21 l -13.91,-22.8 h 5.36 l 11.2,18.45 11.25,-18.45 h 5 z"/><path id="path49" d="m 243,182.78 h 0.86 v 11.13 h 6.86 v 0.78 H 243 Z" class="cls-1"/><path id="path51" d="m 264.1,190.45 h -7.64 a 3.8,3.8 0 0 0 6.6,2.3 l 0.49,0.56 a 4.26,4.26 0 0 1 -3.35,1.45 4.36,4.36 0 0 1 -4.58,-4.51 4.25,4.25 0 0 1 4.26,-4.51 4.2,4.2 0 0 1 4.23,4.48 c 0,0.06 -0.01,0.15 -0.01,0.23 z m -7.63,-0.66 h 6.81 a 3.41,3.41 0 0 0 -6.81,0 z" class="cls-1"/><path id="path53" d="m 275.24,194.13 a 2.74,2.74 0 0 1 -1.82,0.63 2.21,2.21 0 0 1 -2.42,-2.42 v -5.8 h -1.63 v -0.73 H 271 v -1.94 h 0.85 v 1.94 h 2.82 v 0.73 h -2.82 v 5.72 c 0,1.14 0.56,1.77 1.65,1.77 a 2,2 0 0 0 1.38,-0.5 z" class="cls-1"/><path id="path55" d="m 297.91,185.81 v 8.88 h -0.82 v -1.91 a 3.5,3.5 0 0 1 -3.35,2 A 3.4,3.4 0 0 1 290,191 v -5.19 h 0.85 v 5.12 c 0,2 1.07,3.06 2.93,3.06 a 3.12,3.12 0 0 0 3.25,-3.45 v -4.73 z" class="cls-1"/><path id="path57" d="m 304.28,193.62 0.39,-0.68 a 5.16,5.16 0 0 0 3.2,1.07 c 1.87,0 2.62,-0.66 2.62,-1.67 0,-2.58 -5.88,-0.68 -5.88,-4.17 0,-1.34 1.12,-2.43 3.36,-2.43 a 5.44,5.44 0 0 1 3,0.87 l -0.39,0.68 a 4.54,4.54 0 0 0 -2.67,-0.8 c -1.74,0 -2.5,0.71 -2.5,1.67 0,2.67 5.88,0.78 5.88,4.16 0,1.45 -1.24,2.44 -3.5,2.44 a 5.64,5.64 0 0 1 -3.51,-1.14 z" class="cls-1"/><path id="path59" d="m 334.25,185.81 v 7.93 c 0,3 -1.44,4.32 -4.3,4.32 a 5.87,5.87 0 0 1 -4.07,-1.41 l 0.46,-0.65 a 5.25,5.25 0 0 0 3.59,1.29 c 2.37,0 3.47,-1.09 3.47,-3.45 v -1.5 a 4.08,4.08 0 0 1 -3.69,2 4.32,4.32 0 1 1 0,-8.63 4.09,4.09 0 0 1 3.73,2.08 v -2 z m -0.83,4.24 a 3.64,3.64 0 1 0 -3.64,3.55 3.45,3.45 0 0 0 3.64,-3.55 z" class="cls-1"/><path id="path61" d="m 349.71,185.81 v 8.88 h -0.81 v -1.91 a 3.5,3.5 0 0 1 -3.36,2 3.4,3.4 0 0 1 -3.7,-3.76 v -5.19 h 0.85 v 5.12 c 0,2 1.07,3.06 2.92,3.06 a 3.12,3.12 0 0 0 3.25,-3.45 v -4.73 z" class="cls-1"/><path id="path63" d="m 357.13,183 a 0.7,0.7 0 1 1 0.69,0.68 0.68,0.68 0 0 1 -0.69,-0.68 z m 0.27,2.84 h 0.85 v 8.88 h -0.85 z" class="cls-1"/><path id="path65" d="m 373.81,182.07 v 12.62 H 373 v -2.09 a 3.94,3.94 0 0 1 -3.64,2.16 4.51,4.51 0 0 1 0,-9 4,4 0 0 1 3.62,2.13 v -5.8 z m -0.85,8.18 a 3.57,3.57 0 1 0 -3.57,3.74 3.52,3.52 0 0 0 3.61,-3.74 z" class="cls-1"/><path id="path67" d="m 389,190.45 h -7.64 a 3.81,3.81 0 0 0 6.61,2.3 l 0.49,0.56 a 4.26,4.26 0 0 1 -3.35,1.45 4.36,4.36 0 0 1 -4.58,-4.51 4.25,4.25 0 1 1 8.49,0 c -0.02,0.03 -0.02,0.12 -0.02,0.2 z m -7.62,-0.66 h 6.81 a 3.41,3.41 0 0 0 -6.81,0 z" class="cls-1"/><path id="path69" d="m 411.3,185.81 -4.56,10.09 c -0.72,1.63 -1.6,2.16 -2.78,2.16 a 2.8,2.8 0 0 1 -2,-0.8 l 0.42,-0.65 a 2.16,2.16 0 0 0 1.65,0.7 c 0.82,0 1.41,-0.37 2,-1.58 l 0.47,-1.07 -4,-8.85 h 0.9 l 3.55,7.94 3.56,-7.94 z" class="cls-1"/><path id="path71" d="m 416,190.25 a 4.44,4.44 0 1 1 4.44,4.51 4.32,4.32 0 0 1 -4.44,-4.51 z m 8,0 a 3.58,3.58 0 1 0 -3.57,3.74 3.52,3.52 0 0 0 3.57,-3.74 z" class="cls-1"/><path id="path73" d="m 439.38,185.81 v 8.88 h -0.82 v -1.91 a 3.5,3.5 0 0 1 -3.35,2 3.4,3.4 0 0 1 -3.71,-3.78 v -5.19 h 0.85 v 5.12 c 0,2 1.07,3.06 2.93,3.06 a 3.12,3.12 0 0 0 3.25,-3.45 v -4.73 z" class="cls-1"/><path id="path75" d="m 463.46,189.5 v 5.19 h -0.85 v -5.12 c 0,-2 -1.07,-3.06 -2.88,-3.06 a 3.16,3.16 0 0 0 -3.36,3.45 v 4.73 h -0.86 v -12.62 h 0.86 v 5.59 a 3.67,3.67 0 0 1 3.48,-1.92 c 2.15,0 3.61,1.26 3.61,3.76 z" class="cls-1"/><path id="path77" d="m 470.09,190.25 a 4.44,4.44 0 1 1 4.44,4.51 4.33,4.33 0 0 1 -4.44,-4.51 z m 8,0 a 3.57,3.57 0 1 0 -3.57,3.74 3.52,3.52 0 0 0 3.58,-3.74 z" class="cls-1"/><path id="path79" d="m 500.28,189.5 v 5.19 h -0.85 v -5.12 c 0,-2 -1,-3.06 -2.77,-3.06 a 3.12,3.12 0 0 0 -3.25,3.45 v 4.73 h -0.85 v -5.12 c 0,-2 -1,-3.06 -2.77,-3.06 a 3.12,3.12 0 0 0 -3.25,3.45 v 4.73 h -0.85 v -8.88 h 0.81 v 1.9 a 3.53,3.53 0 0 1 3.41,-2 3.16,3.16 0 0 1 3.25,2.14 3.74,3.74 0 0 1 3.59,-2.14 c 2.14,0.03 3.53,1.29 3.53,3.79 z" class="cls-1"/><path id="path81" d="m 515.38,190.45 h -7.64 a 3.81,3.81 0 0 0 6.61,2.3 l 0.49,0.56 a 4.26,4.26 0 0 1 -3.35,1.45 4.36,4.36 0 0 1 -4.58,-4.51 4.25,4.25 0 1 1 8.49,0 c 0,0.03 -0.02,0.12 -0.02,0.2 z m -7.62,-0.66 h 6.81 a 3.41,3.41 0 0 0 -6.81,0 z" class="cls-1"/><path id="path83" d="m 212.57,201.64 h -7.26 V 77.9 h 7.26 z m -97.25,-99 -74.47,24.85 V 137 l 74.47,-24.84 z m 0,-22.7 -74.47,31.6 v 9.54 l 74.47,-31.61 z m 0,-22.25 -74.47,37.92 v 9.54 l 74.47,-37.92 z m 0,66.75 -74.47,19 V 153 l 74.47,-19 z m 0,-78.37 52.91,42.5 V 79 l -52.75,-42.58 -4,2.13 -70.61,36 V 84 L 115.34,46.09 Z M 168,191 40.85,192.11 v 9.53 L 168,200.51 Z m -52.68,-45.18 -74.47,13.55 v 9.53 l 74.47,-13.57 z m 0,22.7 -74.47,6.82 v 9.53 L 115.32,178 Z" class="cls-2" style="fill:url(#linear-gradient)"/><rect id="rect85" width="565.55" height="238.06" x="0" y="0" class="cls-3"/></g></g></svg>