<svg xmlns="http://www.w3.org/2000/svg" xmlns:xlink="http://www.w3.org/1999/xlink" viewBox="40 36 484 170">
  <defs>
    <style>
      .cls-1 {
        fill: #808285;
      }

      .cls-2 {
        fill: url(#linear-gradient);
      }

      .cls-3 {
        fill: none;
      }
    </style>
    <linearGradient id="linear-gradient" x1="51.31" y1="158.74" x2="224.71" y2="97.65" gradientUnits="userSpaceOnUse">
      <stop offset="0" stop-color="#bf9b30" />
      <stop offset="0.18" stop-color="#ffdc73" />
      <stop offset="0.48" stop-color="#ffbf00" />
      <stop offset="0.7" stop-color="#e3b839" />
      <stop offset="0.88" stop-color="#ffcf40" />
      <stop offset="1" stop-color="#bf9b30" />
    </linearGradient>
  </defs>
  <g id="Layer_2" data-name="Layer 2">
    <g id="Layer_1-2" data-name="Layer 1">
      <path d="M240.91,122.08l5.92-7c2,2.63,4.17,4,6.63,4,3.13,0,4.83-1.91,4.83-5.59V97H245V88.59h24v24.23c0,10-5.15,14.9-14.8,14.9C248.64,127.72,243.87,125.75,240.91,122.08Z" />
      <path d="M301.25,119.5H285L282,127H270.94l16.94-38.37h10.69l17,38.37H304.27Zm-3.18-8-4.93-12.28-4.93,12.28Z" />
      <path d="M318.62,88.59h10.85V127H318.62Z" />
      <path d="M378.85,119.5H362.63l-3,7.46H348.54l16.94-38.37h10.69l17,38.37H381.87Zm-3.18-8-4.93-12.28-4.93,12.28Z" />
      <path d="M430.86,127l-.11-20.34-9.87,16.55h-4.82l-9.81-16V127h-10V88.59h8.93l13.49,22.14,13.15-22.14h8.94l.11,38.37Z" />
      <path d="M485,116.43c0,6.63-5.48,10.53-15.78,10.53H448.5V88.59h19.62c10.09,0,15,4.11,15,10A9.06,9.06,0,0,1,478,107C482.32,108.49,485,111.77,485,116.43Zm-25.76-20v7.4h7.46c3.62,0,5.48-1.26,5.48-3.73s-1.86-3.67-5.48-3.67Zm14.8,18.8c0-2.63-2-3.9-5.7-3.9h-9.1v7.79h9.1C472.07,119.12,474,117.86,474,115.23Z" />
      <path d="M521.45,118.57V127h-30.8V88.59h30.09V97H501.39v6.46h17v8.11h-17v7Z" />
      <path d="M269.57,164.14H251l-3.85,8.75H242l15.85-35h4.95l15.91,35h-5.25Zm-1.75-4L260.26,143l-7.55,17.15Z" />
      <path d="M285.87,137.88h14.76c11.25,0,18.9,7.1,18.9,17.5s-7.65,17.51-18.9,17.51H285.87Zm14.46,30.66c8.65,0,14.2-5.3,14.2-13.16s-5.55-13.15-14.2-13.15h-9.46v26.31Z" />
      <path d="M358.5,137.88l-15.36,35h-4.95l-15.41-35h5.4l12.61,28.76,12.7-28.76Z" />
      <path d="M365,137.88h5v35h-5Z" />
      <path d="M379.25,168.89l1.85-3.9a18,18,0,0,0,11.55,4c6.06,0,8.66-2.35,8.66-5.4,0-8.56-21.21-3.16-21.21-16.16,0-5.4,4.2-10,13.4-10a20.6,20.6,0,0,1,11.26,3.1l-1.65,4a18.08,18.08,0,0,0-9.61-2.85c-5.95,0-8.5,2.5-8.5,5.55,0,8.55,21.21,3.2,21.21,16.05,0,5.36-4.3,10-13.56,10C387.3,173.29,382.05,171.49,379.25,168.89Z" />
      <path d="M412.66,155.38c0-10.25,7.9-17.9,18.66-17.9s18.55,7.6,18.55,17.9-7.9,17.91-18.55,17.91S412.66,165.64,412.66,155.38Zm32.21,0a13.14,13.14,0,0,0-13.55-13.45c-7.86,0-13.66,5.7-13.66,13.45s5.8,13.46,13.66,13.46A13.15,13.15,0,0,0,444.87,155.38Z" />
      <path d="M482.93,172.89l-7.55-10.76c-.7.05-1.45.1-2.2.1h-8.65v10.66h-5v-35h13.66c9.1,0,14.61,4.6,14.61,12.2a11.05,11.05,0,0,1-7.71,11l8.3,11.76Zm-.15-22.81c0-5-3.35-7.85-9.75-7.85h-8.5V158H473C479.43,158,482.78,155.08,482.78,150.08Z" />
      <path d="M510.79,160.78v12.11h-5V160.68l-13.91-22.8h5.36l11.2,18.45,11.25-18.45h5Z" />
      <path class="cls-1" d="M243,182.78h.86v11.13h6.86v.78H243Z" />
      <path class="cls-1" d="M264.1,190.45h-7.64a3.8,3.8,0,0,0,6.6,2.3l.49.56a4.26,4.26,0,0,1-3.35,1.45,4.36,4.36,0,0,1-4.58-4.51,4.25,4.25,0,0,1,4.26-4.51,4.2,4.2,0,0,1,4.23,4.48C264.11,190.28,264.1,190.37,264.1,190.45Zm-7.63-.66h6.81a3.41,3.41,0,0,0-6.81,0Z" />
      <path class="cls-1" d="M275.24,194.13a2.74,2.74,0,0,1-1.82.63,2.21,2.21,0,0,1-2.42-2.42v-5.8h-1.63v-.73H271v-1.94h.85v1.94h2.82v.73h-2.82v5.72c0,1.14.56,1.77,1.65,1.77a2,2,0,0,0,1.38-.5Z" />
      <path class="cls-1" d="M297.91,185.81v8.88h-.82v-1.91a3.5,3.5,0,0,1-3.35,2A3.4,3.4,0,0,1,290,191v-5.19h.85v5.12c0,2,1.07,3.06,2.93,3.06a3.12,3.12,0,0,0,3.25-3.45v-4.73Z" />
      <path class="cls-1" d="M304.28,193.62l.39-.68a5.16,5.16,0,0,0,3.2,1.07c1.87,0,2.62-.66,2.62-1.67,0-2.58-5.88-.68-5.88-4.17,0-1.34,1.12-2.43,3.36-2.43a5.44,5.44,0,0,1,3,.87l-.39.68a4.54,4.54,0,0,0-2.67-.8c-1.74,0-2.5.71-2.5,1.67,0,2.67,5.88.78,5.88,4.16,0,1.45-1.24,2.44-3.5,2.44A5.64,5.64,0,0,1,304.28,193.62Z" />
      <path class="cls-1" d="M334.25,185.81v7.93c0,3-1.44,4.32-4.3,4.32a5.87,5.87,0,0,1-4.07-1.41l.46-.65a5.25,5.25,0,0,0,3.59,1.29c2.37,0,3.47-1.09,3.47-3.45v-1.5a4.08,4.08,0,0,1-3.69,2,4.32,4.32,0,1,1,0-8.63,4.09,4.09,0,0,1,3.73,2.08v-2Zm-.83,4.24a3.64,3.64,0,1,0-3.64,3.55A3.45,3.45,0,0,0,333.42,190.05Z" />
      <path class="cls-1" d="M349.71,185.81v8.88h-.81v-1.91a3.5,3.5,0,0,1-3.36,2,3.4,3.4,0,0,1-3.7-3.76v-5.19h.85v5.12c0,2,1.07,3.06,2.92,3.06a3.12,3.12,0,0,0,3.25-3.45v-4.73Z" />
      <path class="cls-1" d="M357.13,183a.7.7,0,1,1,.69.68A.68.68,0,0,1,357.13,183Zm.27,2.84h.85v8.88h-.85Z" />
      <path class="cls-1" d="M373.81,182.07v12.62H373V192.6a3.94,3.94,0,0,1-3.64,2.16,4.51,4.51,0,0,1,0-9,4,4,0,0,1,3.62,2.13v-5.8Zm-.85,8.18a3.57,3.57,0,1,0-3.57,3.74A3.52,3.52,0,0,0,373,190.25Z" />
      <path class="cls-1" d="M389,190.45h-7.64a3.81,3.81,0,0,0,6.61,2.3l.49.56a4.26,4.26,0,0,1-3.35,1.45,4.36,4.36,0,0,1-4.58-4.51,4.25,4.25,0,1,1,8.49,0C389,190.28,389,190.37,389,190.45Zm-7.62-.66h6.81a3.41,3.41,0,0,0-6.81,0Z" />
      <path class="cls-1" d="M411.3,185.81l-4.56,10.09c-.72,1.63-1.6,2.16-2.78,2.16a2.8,2.8,0,0,1-2-.8l.42-.65a2.16,2.16,0,0,0,1.65.7c.82,0,1.41-.37,2-1.58l.47-1.07-4-8.85h.9l3.55,7.94,3.56-7.94Z" />
      <path class="cls-1" d="M416,190.25a4.44,4.44,0,1,1,4.44,4.51A4.32,4.32,0,0,1,416,190.25Zm8,0a3.58,3.58,0,1,0-3.57,3.74A3.52,3.52,0,0,0,424,190.25Z" />
      <path class="cls-1" d="M439.38,185.81v8.88h-.82v-1.91a3.5,3.5,0,0,1-3.35,2A3.4,3.4,0,0,1,431.5,191v-5.19h.85v5.12c0,2,1.07,3.06,2.93,3.06a3.12,3.12,0,0,0,3.25-3.45v-4.73Z" />
      <path class="cls-1" d="M463.46,189.5v5.19h-.85v-5.12c0-2-1.07-3.06-2.88-3.06a3.16,3.16,0,0,0-3.36,3.45v4.73h-.86V182.07h.86v5.59a3.67,3.67,0,0,1,3.48-1.92C462,185.74,463.46,187,463.46,189.5Z" />
      <path class="cls-1" d="M470.09,190.25a4.44,4.44,0,1,1,4.44,4.51A4.33,4.33,0,0,1,470.09,190.25Zm8,0a3.57,3.57,0,1,0-3.57,3.74A3.52,3.52,0,0,0,478.1,190.25Z" />
      <path class="cls-1" d="M500.28,189.5v5.19h-.85v-5.12c0-2-1-3.06-2.77-3.06a3.12,3.12,0,0,0-3.25,3.45v4.73h-.85v-5.12c0-2-1-3.06-2.77-3.06a3.12,3.12,0,0,0-3.25,3.45v4.73h-.85v-8.88h.81v1.9a3.53,3.53,0,0,1,3.41-2,3.16,3.16,0,0,1,3.25,2.14,3.74,3.74,0,0,1,3.59-2.14C498.89,185.74,500.28,187,500.28,189.5Z" />
      <path class="cls-1" d="M515.38,190.45h-7.64a3.81,3.81,0,0,0,6.61,2.3l.49.56a4.26,4.26,0,0,1-3.35,1.45,4.36,4.36,0,0,1-4.58-4.51,4.25,4.25,0,1,1,8.49,0C515.4,190.28,515.38,190.37,515.38,190.45Zm-7.62-.66h6.81a3.41,3.41,0,0,0-6.81,0Z" />
      <path class="cls-2" d="M212.57,201.64h-7.26V77.9h7.26Zm-97.25-99L40.85,127.49V137l74.47-24.84Zm0-22.7-74.47,31.6v9.54l74.47-31.61Zm0-22.25L40.85,95.61v9.54l74.47-37.92Zm0,66.75-74.47,19V153l74.47-19Zm0-78.37,52.91,42.5V79L115.48,36.42l-4,2.13-70.61,36V84l74.47-37.91ZM168,191,40.85,192.11v9.53L168,200.51Zm-52.68-45.18L40.85,159.37v9.53l74.47-13.57Zm0,22.7-74.47,6.82v9.53L115.32,178Z" />
      <rect class="cls-3" width="565.55" height="238.06" />
    </g>
  </g>
</svg>