<svg xmlns="http://www.w3.org/2000/svg" viewBox="40 36 484 170"><defs><linearGradient id="linear-gradient" x1="51.31" y1="158.74" x2="224.71" y2="97.65" gradientUnits="userSpaceOnUse"><stop offset="0" stop-color="#bf9b30"/><stop offset=".18" stop-color="#ffdc73"/><stop offset=".48" stop-color="#ffbf00"/><stop offset=".7" stop-color="#e3b839"/><stop offset=".88" stop-color="#ffcf40"/><stop offset="1" stop-color="#bf9b30"/></linearGradient><style>.cls-1{fill:#808285}</style></defs><g id="Layer_2" data-name="Layer 2"><g id="Layer_1-2" data-name="Layer 1"><path d="m240.91 122.08 5.92-7c2 2.63 4.17 4 6.63 4 3.13 0 4.83-1.91 4.83-5.59V97H245v-8.41h24v24.23c0 10-5.15 14.9-14.8 14.9-5.56 0-10.33-1.97-13.29-5.64ZM301.25 119.5H285l-3 7.5h-11.06l16.94-38.37h10.69l17 38.37h-11.3Zm-3.18-8-4.93-12.28-4.93 12.28ZM318.62 88.59h10.85V127h-10.85ZM378.85 119.5h-16.22l-3 7.46h-11.09l16.94-38.37h10.69l17 38.37h-11.3Zm-3.18-8-4.93-12.28-4.93 12.28ZM430.86 127l-.11-20.34-9.87 16.55h-4.82l-9.81-16V127h-10V88.59h8.93l13.49 22.14 13.15-22.14h8.94l.11 38.37ZM485 116.43c0 6.63-5.48 10.53-15.78 10.53H448.5V88.59h19.62c10.09 0 15 4.11 15 10A9.06 9.06 0 0 1 478 107c4.32 1.49 7 4.77 7 9.43Zm-25.76-20v7.4h7.46c3.62 0 5.48-1.26 5.48-3.73s-1.86-3.67-5.48-3.67Zm14.8 18.8c0-2.63-2-3.9-5.7-3.9h-9.1v7.79h9.1c3.73 0 5.66-1.26 5.66-3.89ZM521.45 118.57V127h-30.8V88.59h30.09V97h-19.35v6.46h17v8.11h-17v7ZM269.57 164.14H251l-3.85 8.75H242l15.85-35h4.95l15.91 35h-5.25Zm-1.75-4L260.26 143l-7.55 17.15ZM285.87 137.88h14.76c11.25 0 18.9 7.1 18.9 17.5s-7.65 17.51-18.9 17.51h-14.76Zm14.46 30.66c8.65 0 14.2-5.3 14.2-13.16s-5.55-13.15-14.2-13.15h-9.46v26.31ZM358.5 137.88l-15.36 35h-4.95l-15.41-35h5.4l12.61 28.76 12.7-28.76ZM365 137.88h5v35h-5ZM379.25 168.89l1.85-3.9a18 18 0 0 0 11.55 4c6.06 0 8.66-2.35 8.66-5.4 0-8.56-21.21-3.16-21.21-16.16 0-5.4 4.2-10 13.4-10a20.6 20.6 0 0 1 11.26 3.1l-1.65 4a18.08 18.08 0 0 0-9.61-2.85c-5.95 0-8.5 2.5-8.5 5.55 0 8.55 21.21 3.2 21.21 16.05 0 5.36-4.3 10-13.56 10-5.35.01-10.6-1.79-13.4-4.39ZM412.66 155.38c0-10.25 7.9-17.9 18.66-17.9s18.55 7.6 18.55 17.9-7.9 17.91-18.55 17.91-18.66-7.65-18.66-17.91Zm32.21 0a13.14 13.14 0 0 0-13.55-13.45c-7.86 0-13.66 5.7-13.66 13.45s5.8 13.46 13.66 13.46a13.15 13.15 0 0 0 13.55-13.46ZM482.93 172.89l-7.55-10.76c-.7.05-1.45.1-2.2.1h-8.65v10.66h-5v-35h13.66c9.1 0 14.61 4.6 14.61 12.2a11.05 11.05 0 0 1-7.71 11l8.3 11.76Zm-.15-22.81c0-5-3.35-7.85-9.75-7.85h-8.5V158H473c6.43 0 9.78-2.92 9.78-7.92ZM510.79 160.78v12.11h-5v-12.21l-13.91-22.8h5.36l11.2 18.45 11.25-18.45h5Z"/><path class="cls-1" d="M243 182.78h.86v11.13h6.86v.78H243ZM264.1 190.45h-7.64a3.8 3.8 0 0 0 6.6 2.3l.49.56a4.26 4.26 0 0 1-3.35 1.45 4.36 4.36 0 0 1-4.58-4.51 4.25 4.25 0 0 1 4.26-4.51 4.2 4.2 0 0 1 4.23 4.48c0 .06-.01.15-.01.23Zm-7.63-.66h6.81a3.41 3.41 0 0 0-6.81 0ZM275.24 194.13a2.74 2.74 0 0 1-1.82.63 2.21 2.21 0 0 1-2.42-2.42v-5.8h-1.63v-.73H271v-1.94h.85v1.94h2.82v.73h-2.82v5.72c0 1.14.56 1.77 1.65 1.77a2 2 0 0 0 1.38-.5ZM297.91 185.81v8.88h-.82v-1.91a3.5 3.5 0 0 1-3.35 2A3.4 3.4 0 0 1 290 191v-5.19h.85v5.12c0 2 1.07 3.06 2.93 3.06a3.12 3.12 0 0 0 3.25-3.45v-4.73ZM304.28 193.62l.39-.68a5.16 5.16 0 0 0 3.2 1.07c1.87 0 2.62-.66 2.62-1.67 0-2.58-5.88-.68-5.88-4.17 0-1.34 1.12-2.43 3.36-2.43a5.44 5.44 0 0 1 3 .87l-.39.68a4.54 4.54 0 0 0-2.67-.8c-1.74 0-2.5.71-2.5 1.67 0 2.67 5.88.78 5.88 4.16 0 1.45-1.24 2.44-3.5 2.44a5.64 5.64 0 0 1-3.51-1.14ZM334.25 185.81v7.93c0 3-1.44 4.32-4.3 4.32a5.87 5.87 0 0 1-4.07-1.41l.46-.65a5.25 5.25 0 0 0 3.59 1.29c2.37 0 3.47-1.09 3.47-3.45v-1.5a4.08 4.08 0 0 1-3.69 2 4.32 4.32 0 1 1 0-8.63 4.09 4.09 0 0 1 3.73 2.08v-2Zm-.83 4.24a3.64 3.64 0 1 0-3.64 3.55 3.45 3.45 0 0 0 3.64-3.55ZM349.71 185.81v8.88h-.81v-1.91a3.5 3.5 0 0 1-3.36 2 3.4 3.4 0 0 1-3.7-3.76v-5.19h.85v5.12c0 2 1.07 3.06 2.92 3.06a3.12 3.12 0 0 0 3.25-3.45v-4.73ZM357.13 183a.7.7 0 1 1 .69.68.68.68 0 0 1-.69-.68Zm.27 2.84h.85v8.88h-.85ZM373.81 182.07v12.62H373v-2.09a3.94 3.94 0 0 1-3.64 2.16 4.51 4.51 0 0 1 0-9 4 4 0 0 1 3.62 2.13v-5.8Zm-.85 8.18a3.57 3.57 0 1 0-3.57 3.74 3.52 3.52 0 0 0 3.61-3.74ZM389 190.45h-7.64a3.81 3.81 0 0 0 6.61 2.3l.49.56a4.26 4.26 0 0 1-3.35 1.45 4.36 4.36 0 0 1-4.58-4.51 4.25 4.25 0 1 1 8.49 0c-.02.03-.02.12-.02.2Zm-7.62-.66h6.81a3.41 3.41 0 0 0-6.81 0ZM411.3 185.81l-4.56 10.09c-.72 1.63-1.6 2.16-2.78 2.16a2.8 2.8 0 0 1-2-.8l.42-.65a2.16 2.16 0 0 0 1.65.7c.82 0 1.41-.37 2-1.58l.47-1.07-4-8.85h.9l3.55 7.94 3.56-7.94ZM416 190.25a4.44 4.44 0 1 1 4.44 4.51 4.32 4.32 0 0 1-4.44-4.51Zm8 0a3.58 3.58 0 1 0-3.57 3.74 3.52 3.52 0 0 0 3.57-3.74ZM439.38 185.81v8.88h-.82v-1.91a3.5 3.5 0 0 1-3.35 2 3.4 3.4 0 0 1-3.71-3.78v-5.19h.85v5.12c0 2 1.07 3.06 2.93 3.06a3.12 3.12 0 0 0 3.25-3.45v-4.73ZM463.46 189.5v5.19h-.85v-5.12c0-2-1.07-3.06-2.88-3.06a3.16 3.16 0 0 0-3.36 3.45v4.73h-.86v-12.62h.86v5.59a3.67 3.67 0 0 1 3.48-1.92c2.15 0 3.61 1.26 3.61 3.76ZM470.09 190.25a4.44 4.44 0 1 1 4.44 4.51 4.33 4.33 0 0 1-4.44-4.51Zm8 0a3.57 3.57 0 1 0-3.57 3.74 3.52 3.52 0 0 0 3.58-3.74ZM500.28 189.5v5.19h-.85v-5.12c0-2-1-3.06-2.77-3.06a3.12 3.12 0 0 0-3.25 3.45v4.73h-.85v-5.12c0-2-1-3.06-2.77-3.06a3.12 3.12 0 0 0-3.25 3.45v4.73h-.85v-8.88h.81v1.9a3.53 3.53 0 0 1 3.41-2 3.16 3.16 0 0 1 3.25 2.14 3.74 3.74 0 0 1 3.59-2.14c2.14.03 3.53 1.29 3.53 3.79ZM515.38 190.45h-7.64a3.81 3.81 0 0 0 6.61 2.3l.49.56a4.26 4.26 0 0 1-3.35 1.45 4.36 4.36 0 0 1-4.58-4.51 4.25 4.25 0 1 1 8.49 0c0 .03-.02.12-.02.2Zm-7.62-.66h6.81a3.41 3.41 0 0 0-6.81 0Z"/><path d="M212.57 201.64h-7.26V77.9h7.26Zm-97.25-99-74.47 24.85V137l74.47-24.84Zm0-22.7-74.47 31.6v9.54l74.47-31.61Zm0-22.25L40.85 95.61v9.54l74.47-37.92Zm0 66.75-74.47 19V153l74.47-19Zm0-78.37 52.91 42.5V79l-52.75-42.58-4 2.13-70.61 36V84l74.47-37.91ZM168 191l-127.15 1.11v9.53L168 200.51Zm-52.68-45.18-74.47 13.55v9.53l74.47-13.57Zm0 22.7-74.47 6.82v9.53l74.47-6.87Z" style="fill:url(#linear-gradient)"/><path style="fill:none" d="M0 0h565.55v238.06H0z"/></g></g></svg>