<svg xmlns="http://www.w3.org/2000/svg" xmlns:svg="http://www.w3.org/2000/svg" id="svg2" width="340.16" height="188.973" version="1.1" viewBox="0 0 340.16 188.973" xml:space="preserve"><metadata id="metadata8"/><defs id="defs6"><clipPath id="clipPath20" clipPathUnits="userSpaceOnUse"><path id="path18" d="M 663.688,598.238 450.816,578.773 V 551.52 l 212.872,19.46 z m 0,64.903 -212.872,-38.813 v -27.254 l 212.872,38.809 z M 814.254,533.988 450.816,530.746 v -27.254 l 363.438,3.242 z M 663.688,948.16 814.922,826.684 v 27.265 L 664.133,975.766 652.645,969.684 450.816,866.93 v -27.27 l 212.872,108.391 z m 0,-224.015 -212.872,-54.258 v -27.254 l 212.872,54.258 z m 0,190.8 -212.872,-108.379 v -27.253 l 212.872,108.378 z m 0,-63.593 -212.872,-90.34 v -27.258 l 212.872,90.344 z m 0,-64.903 -212.872,-70.996 v -27.265 l 212.872,71.007 z M 941.676,503.492 h -20.77 v 353.699 h 20.77 z"/></clipPath><linearGradient id="linearGradient34" x1="0" x2="1" y1="0" y2="0" gradientTransform="matrix(495.674,174.622,174.622,-495.674,480.708,626.119)" gradientUnits="userSpaceOnUse" spreadMethod="pad"><stop style="stop-opacity:1;stop-color:#b8971f" id="stop22" offset="0"/><stop style="stop-opacity:1;stop-color:#fcdb56" id="stop24" offset=".183"/><stop style="stop-opacity:1;stop-color:#fab90a" id="stop26" offset=".476"/><stop style="stop-opacity:1;stop-color:#deb524" id="stop28" offset=".699"/><stop style="stop-opacity:1;stop-color:#fccd28" id="stop30" offset=".879"/><stop style="stop-opacity:1;stop-color:#b8971f" id="stop32" offset="1"/></linearGradient><clipPath id="clipPath54" clipPathUnits="userSpaceOnUse"><path id="path52" d="m 1042.79,517.633 h 1026.89 v 25.2148 H 1042.79 Z"/></clipPath></defs><g id="g10" transform="matrix(1.3333333,0,0,-1.3333333,0,188.97333)"><g id="g12" transform="scale(0.1)"><g id="g14"><g id="g16" clip-path="url(#clipPath20)"><path style="fill:url(#linearGradient34);fill-opacity:1;fill-rule:nonzero;stroke:none" id="path36" d="M 663.688,598.238 450.816,578.773 V 551.52 l 212.872,19.46 z m 0,64.903 -212.872,-38.813 v -27.254 l 212.872,38.809 z M 814.254,533.988 450.816,530.746 v -27.254 l 363.438,3.242 z M 663.688,948.16 814.922,826.684 v 27.265 L 664.133,975.766 652.645,969.684 450.816,866.93 v -27.27 l 212.872,108.391 z m 0,-224.015 -212.872,-54.258 v -27.254 l 212.872,54.258 z m 0,190.8 -212.872,-108.379 v -27.253 l 212.872,108.378 z m 0,-63.593 -212.872,-90.34 v -27.258 l 212.872,90.344 z m 0,-64.903 -212.872,-70.996 v -27.265 l 212.872,71.007 z M 941.676,503.492 h -20.77 v 353.699 h 20.77 V 503.492"/></g></g><g id="g38" transform="scale(10)"><g id="text42" aria-label="JAI AMBE" transform="matrix(1,0,0,-1,104.017,67.9691)" style="font-variant:normal;font-weight:800;font-size:20.6254px;font-family:Montserrat;-inkscape-font-specification:Montserrat-ExtraBold;writing-mode:lr-tb;fill:#100f0d;fill-opacity:1;fill-rule:nonzero;stroke:none"><path id="path62" d="m 10.457078,-4.7850929 q 0,2.3512956 -1.4231526,3.6713213 -1.4025272,1.2994002 -3.8363245,1.2994002 -3.1556862,0 -5.3419787,-2.4131719 l 1.959413,-2.8256798 q 0.7837653,0.8043906 1.5881559,1.2168986 0.825016,0.412508 1.443778,0.412508 0.5981366,0 0.9281431,-0.3712572 Q 6.125744,-4.1663309 6.125744,-4.8882199 V -11.034589 H 1.2168986 v -3.423817 h 9.2401794 z"/><path id="path64" d="M 22.976434,0 22.130793,-2.3100449 H 16.293805 L 15.427538,0 h -4.413836 l 6.166995,-14.458406 h 4.413835 L 27.555273,0 Z m -5.486356,-5.4451057 h 3.506318 l -1.732534,-4.7232163 z"/><path id="path66" d="M 28.607167,-14.458406 H 32.89725 V 0 h -4.290083 z"/><path id="path68" d="M 52.181999,0 51.336357,-2.3100449 H 45.499369 L 44.633102,0 h -4.413835 l 6.166994,-14.458406 h 4.413836 L 56.760838,0 Z m -5.486357,-5.4451057 h 3.506318 l -1.732533,-4.7232163 z"/><path id="path70" d="M 57.812735,-14.458406 H 62.4122 l 3.877575,8.023281 3.85695,-8.023281 h 4.599464 V 0 h -3.774448 v -8.5801666 l -3.300064,7.157014 h -2.784429 l -3.300064,-7.157014 V 0 h -3.774449 z"/><path id="path72" d="m 84.584505,-14.458406 q 1.670657,0 2.928807,0.453759 1.258149,0.433133 1.938788,1.258149 0.680638,0.825016 0.680638,1.938788 0,1.0931463 -0.660013,1.9387878 -0.660013,0.8456414 -1.79441,1.1756478 1.320026,0.2681302 2.103791,1.2787748 0.804391,0.9900193 0.804391,2.3719211 0,1.2168986 -0.701264,2.1450417 -0.701264,0.90751757 -2.000664,1.40252719 Q 86.605794,0 84.893886,0 h -7.404519 v -14.458406 z m -0.226879,5.6719854 q 0.639387,0 1.010644,-0.3300064 0.371257,-0.3506318 0.371257,-0.928143 0,-0.556886 -0.371257,-0.866267 -0.371257,-0.330006 -1.010644,-0.330006 h -2.598801 v 2.4544224 z m 0,5.5688581 q 0.825016,0.020625 1.2994,-0.3506318 0.495009,-0.3712572 0.495009,-1.0106446 0,-0.5981366 -0.495009,-0.928143 -0.474384,-0.3506319 -1.2994,-0.3300065 h -2.598801 v 2.6194259 z"/><path id="path74" d="m 93.350299,-14.458406 h 11.818351 v 3.300064 h -7.528268 v 2.2687944 h 6.827008 v 3.3000641 h -6.827008 v 2.2894194 h 7.734528 V 0 H 93.350299 Z"/></g><g id="text46" aria-label="ADVISORY PVT LTD" transform="matrix(1,0,0,-1,104.14786,58.17926)" style="font-variant:normal;font-weight:700;font-size:10.4427px;font-family:Montserrat;-inkscape-font-specification:Montserrat-Bold;writing-mode:lr-tb;fill:#100f0d;fill-opacity:1;fill-rule:nonzero;stroke:none"><path id="path77" d="M 6.0880943,0 5.5868447,-1.2948948 H 2.4227065 L 1.9110142,0 H -0.0522135 L 3.0910393,-7.320333 H 5.054267 L 8.1244209,0 Z M 2.997055,-2.7568729 H 5.0229389 L 4.0204396,-5.367548 Z"/><path id="path79" d="m 11.862907,-7.320333 q 1.148697,0 2.025884,0.4594788 0.88763,0.4594789 1.378437,1.2948949 0.490807,0.8249733 0.490807,1.9005715 0,1.0755981 -0.50125,1.9110141 -0.490807,0.83541607 -1.399322,1.29489488 Q 12.959391,0 11.789809,0 H 8.7092119 v -7.320333 z m 0.05221,5.7748133 q 0.553463,0 0.981614,-0.2610675 0.428151,-0.2610675 0.668333,-0.7414317 0.240182,-0.4803642 0.240182,-1.0964835 0,-0.6265621 -0.261068,-1.1069263 -0.250625,-0.4803642 -0.699661,-0.7414317 -0.449036,-0.2715102 -1.023384,-0.2715102 h -1.200911 v 4.2188509 z"/><path id="path81" d="m 16.363463,-7.320333 h 2.057211 l 1.827473,5.2944491 1.837915,-5.2944491 H 24.04929 L 21.18799,0 h -1.984113 z"/><path id="path83" d="m 24.728237,-7.320333 h 1.911014 V 0 h -1.911014 z"/><path id="path85" d="m 33.197268,-5.1169232 q -0.584791,-0.3446091 -1.253124,-0.5639058 -0.65789,-0.2192967 -1.106926,-0.2192967 -0.355052,0 -0.563906,0.1357551 -0.198411,0.1253124 -0.198411,0.3759372 0,0.2401821 0.177526,0.4072653 0.177526,0.1566405 0.438593,0.2610675 0.261068,0.093984 0.77276,0.2506248 0.762317,0.2192967 1.253124,0.4385935 0.50125,0.2192967 0.856301,0.6787755 0.355052,0.4490361 0.355052,1.1800251 0,0.730989 -0.38638,1.25312407 -0.38638,0.51169231 -1.065155,0.77275982 -0.668333,0.26106751 -1.493306,0.26106751 -0.908515,0 -1.81703,-0.31328101 -0.898072,-0.32372371 -1.555962,-0.87718679 l 0.741431,-1.4933062 q 0.553463,0.4908069 1.305338,0.8040879 0.762317,0.313281 1.347108,0.313281 0.428151,0 0.668333,-0.1566405 0.250625,-0.1566405 0.250625,-0.4594788 0,-0.2506248 -0.187969,-0.417708 -0.177526,-0.1670832 -0.459479,-0.2610675 -0.27151,-0.104427 -0.772759,-0.2401821 -0.751875,-0.208854 -1.242682,-0.417708 -0.490807,-0.2192967 -0.845859,-0.6474474 -0.344609,-0.4385935 -0.344609,-1.1591398 0,-0.6787755 0.355052,-1.1904678 0.365495,-0.5116924 1.023385,-0.7832026 0.668333,-0.2819529 1.545519,-0.2819529 0.793646,0 1.566405,0.2297394 0.77276,0.2192967 1.357552,0.595234 z"/><path id="path87" d="m 38.303747,-7.4352027 q 1.117369,0 2.015441,0.4908069 0.908515,0.490807 1.420208,1.3471084 0.522135,0.8563014 0.522135,1.9214569 0,1.0755981 -0.522135,1.9423422 -0.511693,0.86674417 -1.420208,1.36799379 -0.898072,0.50124962 -2.015441,0.50124962 -1.117369,0 -2.025884,-0.49080692 -0.898072,-0.50124962 -1.420207,-1.36799379 -0.511692,-0.8771868 -0.511692,-1.9527849 0,-1.0651555 0.511692,-1.9214569 0.522135,-0.8563014 1.420207,-1.3471084 0.908515,-0.4908069 2.025884,-0.4908069 z m 0.02089,1.6186186 q -0.543021,0 -1.012942,0.2819529 -0.459479,0.2819529 -0.730989,0.7832025 -0.271511,0.4908069 -0.271511,1.0860409 0,0.6056766 0.271511,1.1069262 0.281952,0.4908069 0.741431,0.7832025 0.459479,0.2819529 1.0025,0.2819529 0.54302,0 0.992056,-0.2819529 0.459479,-0.2923956 0.720546,-0.7832025 0.261068,-0.5012496 0.261068,-1.1069262 0,-0.595234 -0.261068,-1.0860409 -0.261067,-0.5012496 -0.720546,-0.7832025 -0.449036,-0.2819529 -0.992056,-0.2819529 z"/><path id="path89" d="M 48.025903,0 46.960747,-2.0258839 H 46.918976 45.54054 V 0 h -1.911014 v -7.320333 h 3.28945 q 1.451536,0 2.245181,0.6787756 0.804088,0.6683328 0.804088,1.8901287 0,0.8249734 -0.334167,1.43065 -0.334166,0.5952339 -0.971171,0.9294003 L 50.187542,0 Z M 45.54054,-3.5505181 h 1.388879 q 0.584791,0 0.898072,-0.2923956 0.323724,-0.2923957 0.323724,-0.8458588 0,-0.5325777 -0.323724,-0.8145306 -0.313281,-0.2923956 -0.898072,-0.2923956 H 45.54054 Z"/><path id="path91" d="m 57.685236,-7.320333 -2.642003,4.9811681 V 0 H 53.132218 V -2.2869514 L 50.438002,-7.320333 h 1.911014 l 1.733488,3.1432528 1.691718,-3.1432528 z"/><path id="path93" d="m 64.43122,-7.320333 q 1.399322,0 2.172082,0.6787756 0.772759,0.6683328 0.772759,1.8901287 0,1.2948949 -0.772759,2.0154412 -0.77276,0.7101036 -2.172082,0.7101036 H 63.125882 V 0 h -1.911014 v -7.320333 z m -0.09398,3.7698149 q 0.584791,0 0.898072,-0.2923956 0.323724,-0.2923957 0.323724,-0.8458588 0,-0.5325777 -0.323724,-0.8145306 -0.313281,-0.2923956 -0.898072,-0.2923956 h -1.211354 v 2.2451806 z"/><path id="path95" d="m 67.939922,-7.320333 h 2.057212 l 1.827473,5.2944491 1.837915,-5.2944491 H 75.62575 L 72.76445,0 h -1.984113 z"/><path id="path97" d="m 75.688211,-7.320333 h 6.276063 v 1.5768478 H 79.771307 V 0 h -1.911014 v -5.7434852 h -2.172082 z"/><path id="path99" d="m 85.73409,-7.320333 h 1.911015 v 5.6912717 h 3.101482 V 0 H 85.73409 Z"/><path id="path101" d="m 90.725511,-7.320333 h 6.276063 v 1.5768478 H 94.808607 V 0 h -1.911014 v -5.7434852 h -2.172082 z"/><path id="path103" d="m 100.96979,-7.320333 q 1.1487,0 2.02589,0.4594788 0.88763,0.4594789 1.37843,1.2948949 0.49081,0.8249733 0.49081,1.9005715 0,1.0755981 -0.50125,1.9110141 -0.4908,0.83541607 -1.39932,1.29489488 Q 102.06628,0 100.8967,0 h -3.080601 v -7.320333 z m 0.0522,5.7748133 q 0.55346,0 0.98161,-0.2610675 0.42815,-0.2610675 0.66833,-0.7414317 0.24019,-0.4803642 0.24019,-1.0964835 0,-0.6265621 -0.26107,-1.1069263 -0.25063,-0.4803642 -0.69966,-0.7414317 -0.44904,-0.2715102 -1.02339,-0.2715102 h -1.200907 v 4.2188509 z"/></g></g><g id="g48"><g id="g50" clip-path="url(#clipPath54)"><g id="g56" transform="scale(10)"><g id="text60" aria-label="LET US GUIDE YOU HOME" transform="matrix(1,0,0,-1,103.846,51.7809)" style="font-variant:normal;font-weight:300;font-size:3.55084px;font-family:Montserrat;-inkscape-font-specification:Montserrat-Light;writing-mode:lr-tb;fill:#b0b0ae;fill-opacity:1;fill-rule:nonzero;stroke:none"><path id="path106" d="m 0.37638903,-2.4855879 h 0.28406719 v 2.22282575 H 1.7505641 V 0 H 0.37638903 Z"/><path id="path108" d="M 5.2943521,-2.4855879 H 6.981001 v 0.2627621 H 5.5784192 v 0.8344474 h 1.2534465 v 0.2592113 H 5.5784192 v 0.86640495 H 7.0271619 V 0 H 5.2943521 Z"/><path id="path110" d="m 10.172841,-2.4855879 h 1.906801 v 0.2627621 H 11.266499 V 0 h -0.284067 v -2.2228258 h -0.809591 z"/><path id="path112" d="m 19.330692,-1.0119894 q 0,0.3621857 0.202398,0.56813441 0.202397,0.20594872 0.553931,0.20594872 0.351533,0 0.55038,-0.20239788 0.202398,-0.20594871 0.202398,-0.57168525 v -1.4735985 h 0.280516 v 1.4735985 q 0,0.48291425 -0.273415,0.75987977 -0.273414,0.27341467 -0.759879,0.27341467 -0.486466,0 -0.763431,-0.27341467 -0.276966,-0.27696552 -0.276966,-0.75987977 v -1.4735985 h 0.284068 z"/><path id="path114" d="m 26.165817,-2.0275296 q -0.159788,-0.1029743 -0.344432,-0.1526861 -0.181093,-0.053263 -0.34088,-0.053263 -0.241458,0 -0.387042,0.095873 -0.142034,0.092322 -0.142034,0.2521096 0,0.1420336 0.08167,0.2308046 0.08167,0.088771 0.202398,0.1420336 0.120728,0.049712 0.330228,0.1136269 0.25566,0.081669 0.408346,0.1526861 0.156237,0.071017 0.262762,0.2130504 0.110077,0.13848274 0.110077,0.3657365 0,0.20594871 -0.113627,0.36218567 -0.110076,0.15623695 -0.316025,0.24145711 -0.202398,0.08522016 -0.468711,0.08522016 -0.266313,0 -0.518423,-0.10297436 -0.252109,-0.10652519 -0.433202,-0.28051635 l 0.12783,-0.24500795 q 0.17044,0.16688947 0.390593,0.25921131 0.223702,0.0923218 0.436753,0.0923218 0.269864,0 0.426101,-0.10297436 0.156237,-0.1065252 0.156237,-0.29116887 0,-0.14558444 -0.08167,-0.23790628 -0.08167,-0.0923218 -0.202398,-0.14203362 -0.120728,-0.053263 -0.337329,-0.1207285 -0.248559,-0.074568 -0.404796,-0.1455845 -0.152686,-0.071017 -0.262762,-0.2094995 -0.106525,-0.1384828 -0.106525,-0.3621857 0,-0.1917453 0.106525,-0.3373298 0.106525,-0.1455844 0.301821,-0.2237029 0.195296,-0.081669 0.450957,-0.081669 0.21305,0 0.42255,0.063915 0.209499,0.060364 0.365736,0.1668895 z"/><path id="path116" d="m 35.248847,-1.2143872 h 0.25211 v 0.90901497 q -0.184644,0.15268611 -0.429652,0.24145711 -0.245008,0.08522016 -0.493566,0.08522016 -0.355084,0 -0.653355,-0.16688948 -0.29472,-0.17044031 -0.468711,-0.46160918 -0.173991,-0.29116887 -0.173991,-0.63915118 0,-0.3444315 0.173991,-0.6320495 0.173991,-0.2911689 0.475813,-0.4580584 0.301821,-0.1704403 0.660456,-0.1704403 0.25566,0 0.493567,0.092322 0.241457,0.088771 0.42255,0.2521096 l -0.163339,0.2059487 q -0.152686,-0.1384827 -0.351533,-0.2130504 -0.195296,-0.078118 -0.401245,-0.078118 -0.280516,0 -0.514872,0.134932 -0.234355,0.1349319 -0.372838,0.3657365 -0.134932,0.2272537 -0.134932,0.5006684 0,0.27696551 0.138483,0.5077701 0.138483,0.23080459 0.372838,0.36573651 0.234355,0.13493192 0.514872,0.13493192 0.166889,0 0.33733,-0.0532626 0.17044,-0.0568134 0.316024,-0.1597878 z"/><path id="path118" d="m 39.32874,-1.0119894 q 0,0.3621857 0.202398,0.56813441 0.202398,0.20594872 0.553931,0.20594872 0.351533,0 0.550381,-0.20239788 0.202397,-0.20594871 0.202397,-0.57168525 v -1.4735985 h 0.280517 v 1.4735985 q 0,0.48291425 -0.273415,0.75987977 -0.273415,0.27341467 -0.75988,0.27341467 -0.486465,0 -0.76343,-0.27341467 -0.276966,-0.27696552 -0.276966,-0.75987977 v -1.4735985 h 0.284067 z"/><path id="path120" d="m 44.758221,-2.4855879 h 0.284067 V 0 h -0.284067 z"/><path id="path122" d="m 49.651292,-2.4855879 q 0.358635,0 0.649804,0.1633386 0.291169,0.1633386 0.458058,0.4474058 0.170441,0.2840672 0.170441,0.6320495 0,0.34798234 -0.170441,0.63204954 -0.166889,0.28406719 -0.461609,0.44740582 Q 50.002826,0 49.64064,0 h -0.994235 v -2.4855879 z m 0.0036,2.22282575 q 0.273415,0 0.497118,-0.12783024 0.227254,-0.12783024 0.358635,-0.35153315 0.131381,-0.22370291 0.131381,-0.49711756 0,-0.2769655 -0.134932,-0.5006685 -0.131381,-0.2237029 -0.358635,-0.3515331 -0.227254,-0.1313811 -0.504219,-0.1313811 h -0.713719 v 1.96006365 z"/><path id="path124" d="m 54.419838,-2.4855879 h 1.686649 v 0.2627621 h -1.402581 v 0.8344474 h 1.253446 v 0.2592113 h -1.253446 v 0.86640495 h 1.448742 V 0 h -1.73281 z"/><path id="path126" d="m 65.214216,-2.4855879 -0.944523,1.6227338 V 0 H 63.989176 V -0.85575242 L 63.026899,-2.4855879 h 0.294719 l 0.806041,1.3031582 0.795388,-1.3031582 z"/><path id="path128" d="m 69.4115,-2.506893 q 0.355084,0 0.653355,0.1704403 0.298271,0.1668895 0.472262,0.4580584 0.173991,0.287618 0.173991,0.6320495 0,0.34798231 -0.173991,0.63915118 -0.173991,0.29116887 -0.472262,0.46160918 -0.298271,0.16688948 -0.653355,0.16688948 -0.358634,0 -0.656905,-0.16688948 -0.29827,-0.17044031 -0.472262,-0.46160918 -0.173991,-0.29116887 -0.173991,-0.63915118 0,-0.3444315 0.173991,-0.6320495 0.173992,-0.2911689 0.472262,-0.4580584 0.298271,-0.1704403 0.656905,-0.1704403 z m 0,0.2627622 q -0.273414,0 -0.50777,0.1349319 -0.230804,0.1313811 -0.369287,0.3621857 -0.138483,0.2272537 -0.138483,0.5006684 0,0.27341467 0.138483,0.5077701 0.138483,0.23080459 0.369287,0.36573651 0.234356,0.13493192 0.50777,0.13493192 0.273415,0 0.50422,-0.13493192 0.230804,-0.13493192 0.365736,-0.36573651 0.138483,-0.23435543 0.138483,-0.5077701 0,-0.2734147 -0.138483,-0.5006684 -0.134932,-0.2308046 -0.365736,-0.3621857 -0.230805,-0.1349319 -0.50422,-0.1349319 z"/><path id="path130" d="m 74.386365,-1.0119894 q 0,0.3621857 0.202398,0.56813441 0.202398,0.20594872 0.553931,0.20594872 0.351533,0 0.55038,-0.20239788 0.202398,-0.20594871 0.202398,-0.57168525 v -1.4735985 h 0.280517 v 1.4735985 q 0,0.48291425 -0.273415,0.75987977 -0.273415,0.27341467 -0.75988,0.27341467 -0.486465,0 -0.76343,-0.27341467 -0.276966,-0.27696552 -0.276966,-0.75987977 v -1.4735985 h 0.284067 z"/><path id="path132" d="m 83.568795,-2.4855879 h 0.284067 v 1.1256162 h 1.498454 v -1.1256162 h 0.284068 V 0 H 85.351316 V -1.1007604 H 83.852862 V 0 h -0.284067 z"/><path id="path134" d="m 90.368555,-2.506893 q 0.355084,0 0.653354,0.1704403 0.298271,0.1668895 0.472262,0.4580584 0.173991,0.287618 0.173991,0.6320495 0,0.34798231 -0.173991,0.63915118 -0.173991,0.29116887 -0.472262,0.46160918 -0.29827,0.16688948 -0.653354,0.16688948 -0.358635,0 -0.656906,-0.16688948 -0.29827,-0.17044031 -0.472262,-0.46160918 -0.173991,-0.29116887 -0.173991,-0.63915118 0,-0.3444315 0.173991,-0.6320495 0.173992,-0.2911689 0.472262,-0.4580584 0.298271,-0.1704403 0.656906,-0.1704403 z m 0,0.2627622 q -0.273415,0 -0.507771,0.1349319 -0.230804,0.1313811 -0.369287,0.3621857 -0.138483,0.2272537 -0.138483,0.5006684 0,0.27341467 0.138483,0.5077701 0.138483,0.23080459 0.369287,0.36573651 0.234356,0.13493192 0.507771,0.13493192 0.273414,0 0.504219,-0.13493192 0.230804,-0.13493192 0.365736,-0.36573651 0.138483,-0.23435543 0.138483,-0.5077701 0,-0.2734147 -0.138483,-0.5006684 -0.134932,-0.2308046 -0.365736,-0.3621857 -0.230805,-0.1349319 -0.504219,-0.1349319 z"/><path id="path136" d="m 95.115677,-2.4855879 h 0.344432 l 0.948074,1.81092832 0.937422,-1.81092832 h 0.347982 V 0 h -0.266313 l -0.0036,-2.0701397 -0.937421,1.80737755 H 96.322963 L 95.37844,-2.0701397 V 0 h -0.262763 z"/><path id="path138" d="m 101.35101,-2.4855879 h 1.68664 v 0.2627621 h -1.40258 v 0.8344474 h 1.25345 v 0.2592113 h -1.25345 v 0.86640495 h 1.44875 V 0 h -1.73281 z"/></g></g></g></g></g></g></svg>