<svg xmlns="http://www.w3.org/2000/svg" viewBox="0 0 213.14 72.78"><defs><linearGradient id="linear-gradient" x1="4.61" x2="80.99" y1="53.88" y2="26.97" gradientUnits="userSpaceOnUse"><stop offset="0" stop-color="#bf9b30"/><stop offset=".18" stop-color="#ffdc73"/><stop offset=".48" stop-color="#ffbf00"/><stop offset=".7" stop-color="#e3b839"/><stop offset=".88" stop-color="#ffcf40"/><stop offset="1" stop-color="#bf9b30"/></linearGradient><style>.cls-1{fill:#808285}</style></defs><g id="Layer_2" data-name="Layer 2"><g id="Layer_1-2" data-name="Layer 1"><path d="m88.13 37.73 2.61-3.09a3.71 3.71 0 0 0 2.92 1.76c1.37 0 2.12-.84 2.12-2.46v-7.27h-5.84V23h10.57v10.65c0 4.4-2.26 6.57-6.51 6.57a7.3 7.3 0 0 1-5.87-2.49ZM114.71 36.6h-7.15l-1.32 3.28h-4.88L108.82 23h4.71L121 39.88h-5Zm-1.4-3.53-2.17-5.41-2.14 5.41ZM122.36 23h4.78v16.9h-4.78ZM148.89 36.6h-7.14l-1.33 3.28h-4.88L143 23h4.71l7.49 16.9h-5Zm-1.4-3.53-2.17-5.41-2.17 5.41ZM171.8 39.88v-9l-4.35 7.3h-2.12l-4.33-7v8.71h-4.41V23h3.93l5.94 9.75 5.75-9.75h3.94v16.9ZM195.66 35.25c0 2.92-2.42 4.63-7 4.63h-9.12V23h8.64c4.44 0 6.62 1.81 6.62 4.42a4 4 0 0 1-2.27 3.67 4.27 4.27 0 0 1 3.13 4.16Zm-11.35-8.82v3.26h3.28c1.59 0 2.42-.55 2.42-1.64s-.83-1.62-2.42-1.62Zm6.52 8.28c0-1.15-.87-1.71-2.51-1.71h-4v3.43h4c1.68 0 2.51-.56 2.51-1.72ZM211.71 36.19v3.69h-13.57V23h13.26v3.69h-8.53v2.85h7.51v3.56h-7.51v3.09ZM100.75 56.26h-8.19l-1.7 3.86h-2.27l7-15.43h2.19l7 15.43h-2.31ZM100 54.5l-3.33-7.56-3.34 7.56ZM107.93 44.69h6.5c5 0 8.33 3.13 8.33 7.71s-3.37 7.72-8.33 7.72h-6.5Zm6.37 13.51c3.81 0 6.26-2.34 6.26-5.8s-2.45-5.79-6.26-5.79h-4.16V58.2ZM139.93 44.69l-6.77 15.43H131l-6.79-15.43h2.38l5.56 12.67 5.59-12.67ZM142.77 44.69H145v15.43h-2.2ZM149.07 58.35l.81-1.72a7.93 7.93 0 0 0 5.12 1.79c2.67 0 3.82-1 3.82-2.38 0-3.77-9.35-1.39-9.35-7.12 0-2.38 1.85-4.4 5.91-4.4a9.09 9.09 0 0 1 5 1.36l-.73 1.76a8.07 8.07 0 0 0-4.23-1.25c-2.62 0-3.75 1.1-3.75 2.44 0 3.77 9.35 1.41 9.35 7.08 0 2.35-1.9 4.38-6 4.38a9.12 9.12 0 0 1-5.95-1.94ZM163.79 52.4c0-4.51 3.48-7.88 8.22-7.88a7.89 7.89 0 1 1 0 15.77c-4.74 0-8.22-3.37-8.22-7.89Zm14.19 0a6 6 0 1 0-6 5.93A5.79 5.79 0 0 0 178 52.4ZM194.74 60.12l-3.32-4.74h-4.82v4.7h-2.2V44.69h6c4 0 6.43 2 6.43 5.38a4.86 4.86 0 0 1-3.39 4.87l3.65 5.18Zm-.06-10c0-2.21-1.48-3.46-4.3-3.46h-3.75v6.94h3.75c2.82-.05 4.3-1.33 4.3-3.53ZM207 54.78v5.34h-2.19v-5.38l-6.12-10.05h2.36l4.95 8.13 5-8.13h2.18Z"/><path d="M89 64.47h.39v4.9h3v.35H89ZM98.34 67.85H95a1.57 1.57 0 0 0 1.65 1.56 1.61 1.61 0 0 0 1.26-.54l.21.24a1.86 1.86 0 0 1-1.47.64 1.92 1.92 0 0 1-2-2 1.87 1.87 0 1 1 3.74 0s-.05.07-.05.1ZM95 67.56h3a1.5 1.5 0 0 0-3 0ZM103.25 69.47a1.18 1.18 0 0 1-.8.28 1 1 0 0 1-1.07-1.06v-2.56h-.72v-.32h.72V65h.38v.86H103v.32h-1.24v2.52c0 .5.24.78.72.78a.91.91 0 0 0 .61-.22ZM113.24 65.81v3.91h-.36v-.84a1.55 1.55 0 0 1-1.48.87 1.49 1.49 0 0 1-1.63-1.66v-2.28h.37v2.25a1.19 1.19 0 0 0 1.29 1.35 1.37 1.37 0 0 0 1.43-1.52v-2.08ZM116 69.25l.18-.3a2.3 2.3 0 0 0 1.41.47c.82 0 1.15-.29 1.15-.73 0-1.14-2.59-.3-2.59-1.84 0-.59.49-1.07 1.48-1.07a2.39 2.39 0 0 1 1.34.38l-.17.3a2 2 0 0 0-1.18-.35c-.76 0-1.1.31-1.1.73 0 1.18 2.59.35 2.59 1.84 0 .63-.54 1.07-1.54 1.07a2.51 2.51 0 0 1-1.57-.5ZM129.25 65.81v3.49a1.66 1.66 0 0 1-1.9 1.9 2.58 2.58 0 0 1-1.79-.62l.2-.28a2.31 2.31 0 0 0 1.58.57 1.33 1.33 0 0 0 1.53-1.53v-.65a1.82 1.82 0 0 1-1.62.89 1.9 1.9 0 1 1 0-3.8 1.8 1.8 0 0 1 1.64.91v-.88Zm-.37 1.86a1.6 1.6 0 1 0-1.6 1.57 1.52 1.52 0 0 0 1.6-1.57ZM136.06 65.81v3.91h-.36v-.84a1.55 1.55 0 0 1-1.48.87 1.49 1.49 0 0 1-1.63-1.66v-2.28h.41v2.25a1.19 1.19 0 0 0 1.29 1.35 1.37 1.37 0 0 0 1.43-1.52v-2.08ZM139.32 64.56a.31.31 0 0 1 .31-.31.3.3 0 0 1 .31.3.31.31 0 0 1-.62 0Zm.12 1.25h.38v3.91h-.38ZM146.67 64.16v5.56h-.36v-.92a1.75 1.75 0 0 1-1.61 1 2 2 0 0 1 0-4 1.76 1.76 0 0 1 1.6.93v-2.57Zm-.37 3.6a1.58 1.58 0 1 0-1.57 1.65 1.56 1.56 0 0 0 1.57-1.65ZM153.36 67.85H150a1.58 1.58 0 0 0 1.66 1.56 1.6 1.6 0 0 0 1.25-.54l.22.24a1.89 1.89 0 0 1-1.48.64 1.93 1.93 0 0 1-2-2 1.87 1.87 0 0 1 1.88-2 1.85 1.85 0 0 1 1.86 2Zm-3.36-.29h3a1.5 1.5 0 0 0-3 0ZM163.19 65.81l-2 4.44c-.32.72-.71 1-1.22 1a1.24 1.24 0 0 1-.91-.35l.19-.28a.93.93 0 0 0 .72.3c.36 0 .63-.16.87-.69l.2-.48-1.76-3.89h.4l1.57 3.5 1.56-3.5ZM165.26 67.76a2 2 0 1 1 2 2 1.9 1.9 0 0 1-2-2Zm3.53 0a1.58 1.58 0 1 0-1.57 1.65 1.55 1.55 0 0 0 1.57-1.65ZM175.56 65.81v3.91h-.36v-.84a1.55 1.55 0 0 1-1.48.87 1.49 1.49 0 0 1-1.63-1.66v-2.28h.37v2.25a1.19 1.19 0 0 0 1.29 1.35 1.37 1.37 0 0 0 1.43-1.52v-2.08ZM186.16 67.43v2.29h-.37v-2.26a1.19 1.19 0 0 0-1.27-1.35 1.4 1.4 0 0 0-1.52 1.53v2.08h-.38v-5.56h.38v2.46a1.62 1.62 0 0 1 1.54-.84 1.48 1.48 0 0 1 1.62 1.65ZM189.09 67.76a2 2 0 1 1 1.95 2 1.9 1.9 0 0 1-1.95-2Zm3.53 0a1.58 1.58 0 1 0-1.62 1.65 1.56 1.56 0 0 0 1.62-1.65ZM202.39 67.43v2.29H202v-2.26c0-.88-.46-1.35-1.22-1.35a1.38 1.38 0 0 0-1.43 1.53v2.08H199v-2.26c0-.88-.45-1.35-1.22-1.35a1.38 1.38 0 0 0-1.43 1.53v2.08H196v-3.91h.36v.84a1.53 1.53 0 0 1 1.49-.87 1.39 1.39 0 0 1 1.44.94 1.64 1.64 0 0 1 1.58-.94 1.47 1.47 0 0 1 1.52 1.65ZM209 67.85h-3.37a1.58 1.58 0 0 0 1.66 1.56 1.6 1.6 0 0 0 1.25-.54l.22.24a1.89 1.89 0 0 1-1.48.64 1.92 1.92 0 0 1-2-2 1.87 1.87 0 1 1 3.74 0s-.02.07-.02.1Zm-3.36-.29h3a1.5 1.5 0 0 0-3 0Z" class="cls-1"/><path d="M75.65 72.78h-3.21V18.27h3.21ZM32.8 29.18 0 40.12v4.2l32.8-10.94Zm0-10L0 33.1v4.2l32.8-13.93Zm0-9.8L0 26.07v4.21l32.8-16.71Zm0 29.41L0 47.14v4.2L32.8 43Zm0-34.53L56.11 23v-4.2L32.87 0 31.1.94 0 16.77V21L32.8 4.27ZM56 68.08l-56 .5v4.2l56-.5Zm-23.2-19.9L0 54.16v4.2l32.8-6Zm0 10-32.8 3v4.2l32.8-3Z" style="fill:url(#linear-gradient)"/></g></g></svg>