<?xml version="1.0" standalone="no"?>
<!DOCTYPE svg PUBLIC "-//W3C//DTD SVG 20010904//EN"
 "http://www.w3.org/TR/2001/REC-SVG-20010904/DTD/svg10.dtd">
<svg version="1.0" xmlns="http://www.w3.org/2000/svg"
 width="1900.000000pt" height="1900.000000pt" viewBox="0 0 1900.000000 1900.000000"
 preserveAspectRatio="xMidYMid meet">
<metadata>
Created by potrace 1.14, written by Peter Selinger 2001-2017
</metadata>
<g transform="translate(0.000000,1900.000000) scale(0.100000,-0.100000)"
fill="#000000" stroke="none">
<path d="M10774 18891 c-49 -26 -136 -72 -194 -103 -144 -76 -633 -327 -1215
-623 -625 -318 -680 -346 -694 -358 -8 -7 -16 -11 -18 -9 -3 2 -69 -30 -308
-153 -88 -45 -299 -153 -470 -240 -170 -87 -400 -204 -510 -260 -110 -56 -330
-169 -490 -250 -159 -81 -407 -207 -550 -280 -143 -73 -386 -197 -540 -275
-154 -79 -370 -189 -480 -245 -110 -56 -326 -167 -480 -245 -154 -78 -392
-200 -530 -270 -137 -70 -365 -186 -505 -257 -445 -227 -809 -412 -1025 -523
-115 -59 -262 -133 -325 -165 -63 -32 -117 -60 -120 -62 -3 -3 -5 -247 -6
-543 l0 -538 21 8 c11 4 99 48 195 97 96 50 328 168 515 263 621 315 790 402
803 412 6 6 12 7 12 3 0 -3 15 2 33 13 17 11 167 88 332 172 298 152 611 311
1070 545 132 67 359 183 505 257 358 183 850 434 1165 595 143 73 267 136 275
139 17 7 12 4 340 172 129 66 351 179 493 251 141 72 371 189 510 260 138 70
383 195 542 276 160 81 412 209 560 285 1234 628 1163 594 1179 578 18 -17
-27 19 656 -529 333 -267 727 -583 875 -703 149 -120 285 -229 304 -244 169
-135 827 -663 900 -723 31 -25 238 -191 461 -369 223 -179 412 -330 420 -337
44 -36 322 -259 785 -631 286 -229 522 -419 525 -422 5 -6 784 -630 945 -758
44 -35 95 -76 113 -93 18 -16 38 -30 45 -32 8 -1 11 137 12 541 l0 543 -65 52
c-36 28 -67 54 -70 57 -3 3 -59 48 -125 101 -102 81 -785 633 -1585 1278 -113
91 -261 211 -330 265 -69 55 -127 102 -130 106 -3 3 -75 61 -160 129 -85 69
-169 136 -186 150 -17 14 -49 40 -70 57 -35 28 -154 125 -194 157 -8 7 -85 68
-170 137 -85 69 -162 130 -170 137 -45 36 -168 136 -186 151 -12 10 -63 51
-115 92 -52 41 -99 79 -105 85 -6 5 -109 89 -229 185 -120 96 -237 191 -260
210 -23 19 -118 96 -210 170 -92 74 -254 205 -359 290 -106 85 -207 166 -225
180 -18 14 -38 30 -45 36 -15 14 -74 62 -301 244 -99 80 -187 150 -195 157 -8
7 -58 47 -110 89 -52 42 -113 91 -135 109 -22 18 -101 83 -176 143 l-137 110
-88 -47z"/>
<path d="M10635 16396 c-282 -145 -765 -391 -1210 -616 -209 -106 -465 -236
-570 -290 -104 -54 -334 -171 -510 -260 -176 -89 -419 -213 -540 -275 -440
-225 -676 -345 -980 -500 -170 -86 -431 -219 -580 -295 -148 -76 -409 -208
-580 -295 -170 -87 -418 -213 -550 -280 -532 -272 -766 -390 -1100 -560 -192
-98 -444 -226 -560 -285 -115 -59 -338 -173 -495 -253 -157 -79 -367 -186
-467 -237 l-183 -93 0 -544 c0 -298 3 -543 6 -543 6 0 507 254 929 470 105 54
318 163 475 242 157 80 402 205 545 278 592 302 816 416 1130 575 182 92 447
227 590 300 330 168 758 386 1135 577 162 83 385 197 495 253 110 56 353 180
540 275 187 95 457 232 600 305 143 73 395 201 560 285 165 84 374 190 465
237 91 46 365 185 610 310 245 124 447 227 449 229 7 6 7 1085 1 1089 -3 2
-95 -43 -205 -99z"/>
<path d="M10775 13923 c-33 -13 -71 -29 -85 -35 -14 -6 -27 -12 -30 -13 -17
-6 -605 -257 -658 -281 -29 -13 -55 -24 -57 -24 -3 0 -24 -9 -48 -19 -23 -11
-98 -43 -167 -71 -69 -28 -138 -58 -155 -65 -16 -7 -165 -70 -330 -140 -165
-70 -313 -133 -330 -141 -16 -7 -154 -66 -305 -130 -508 -215 -675 -286 -710
-301 -19 -9 -37 -17 -40 -17 -5 -2 -493 -207 -547 -232 -18 -8 -48 -20 -65
-28 -18 -8 -89 -38 -158 -66 -69 -28 -134 -55 -145 -60 -42 -19 -112 -49 -175
-75 -36 -14 -78 -32 -95 -40 -50 -22 -177 -76 -235 -100 -79 -32 -1329 -563
-1365 -579 -16 -8 -59 -26 -95 -41 -36 -15 -78 -33 -95 -40 -16 -8 -59 -26
-95 -41 -36 -14 -85 -35 -110 -46 -60 -27 -49 -22 -350 -149 -329 -138 -532
-224 -587 -250 -24 -10 -45 -19 -48 -19 -4 0 -26 -9 -50 -20 -45 -20 -547
-235 -645 -275 -103 -43 -275 -115 -295 -125 -11 -5 -101 -44 -200 -86 -99
-42 -183 -79 -188 -83 -4 -4 -6 -251 -5 -548 l3 -541 400 169 c220 93 414 176
430 183 17 8 59 26 95 41 36 14 79 32 95 40 59 26 623 265 651 275 16 6 47 20
69 30 47 21 86 38 175 75 36 15 79 33 95 40 17 8 116 50 220 93 217 91 775
327 820 347 17 8 107 46 200 85 94 39 184 78 200 85 17 7 107 46 200 85 94 40
188 80 210 90 22 10 171 73 330 140 160 68 382 162 495 210 113 49 291 124
395 168 471 198 721 305 730 310 6 4 15 7 20 8 6 2 80 33 165 69 186 80 204
88 210 90 3 1 22 9 44 18 21 9 40 17 42 17 2 0 27 11 56 24 29 13 141 61 248
106 107 46 213 90 235 100 22 10 123 53 225 95 102 43 239 101 305 130 66 29
192 83 280 120 88 37 173 73 189 81 16 8 33 14 37 14 5 0 37 13 71 29 35 16
135 59 223 95 88 37 174 73 190 81 17 7 59 25 95 40 36 15 70 32 75 39 10 13
14 1070 4 1080 -2 2 -31 -7 -64 -21z"/>
<path d="M9997 11072 c-455 -152 -830 -278 -835 -279 -4 -2 -135 -46 -292 -99
-157 -53 -292 -97 -300 -100 -8 -2 -735 -244 -1614 -538 -1532 -512 -1628
-544 -1651 -551 -40 -12 -2946 -985 -2967 -994 l-28 -11 0 -540 c0 -297 2
-540 4 -540 2 0 1686 561 3743 1247 2056 685 3785 1262 3843 1280 58 19 121
40 140 48 19 8 82 29 140 48 300 97 652 216 659 222 10 11 6 1085 -4 1084 -5
0 -382 -125 -838 -277z"/>
<path d="M10700 8819 c-58 -16 -114 -31 -125 -33 -28 -6 -202 -50 -320 -81
-55 -15 -107 -28 -115 -30 -8 -1 -139 -35 -290 -73 -151 -39 -392 -101 -535
-137 -353 -90 -692 -176 -920 -235 -247 -63 -946 -241 -965 -245 -16 -4 -226
-58 -605 -155 -293 -75 -665 -170 -685 -174 -8 -2 -35 -9 -60 -16 -25 -7 -49
-13 -55 -14 -5 -1 -19 -5 -30 -9 -11 -3 -31 -8 -45 -11 -24 -5 -198 -49 -1065
-271 -209 -53 -387 -98 -395 -100 -8 -2 -58 -14 -110 -28 -94 -26 -761 -196
-790 -202 -22 -5 -397 -101 -529 -136 -63 -17 -122 -32 -132 -34 -9 -2 -140
-35 -291 -74 -150 -39 -285 -73 -301 -77 l-27 -6 0 -548 0 -548 33 8 c17 4
140 35 272 69 132 34 346 89 475 122 129 33 267 69 305 79 39 11 81 21 95 24
14 3 106 26 205 52 99 25 187 47 195 49 8 3 58 15 110 29 94 24 553 141 1185
303 182 46 337 86 345 88 8 1 123 31 255 65 132 35 265 68 295 75 30 7 172 43
315 79 143 37 357 92 475 122 118 30 303 78 410 106 107 27 202 51 210 53 8 2
53 13 100 25 47 12 92 23 100 25 8 2 51 13 95 25 44 11 87 22 96 25 36 8 263
66 434 110 99 26 187 48 195 50 8 2 35 8 60 15 25 7 52 13 60 15 8 2 121 30
250 63 129 34 368 95 530 136 162 41 394 100 515 131 121 31 299 77 395 101
422 108 496 127 510 134 13 7 15 76 13 542 0 293 -2 536 -2 541 -2 12 -29 7
-141 -24z"/>
<path d="M10830 6406 c-4 -3 -107 -24 -267 -52 -55 -10 -70 -12 -108 -19 -22
-4 -101 -18 -175 -32 -74 -14 -144 -27 -155 -29 -11 -2 -31 -5 -45 -7 -14 -3
-113 -21 -220 -41 -107 -19 -211 -38 -230 -41 -19 -3 -57 -10 -85 -15 -27 -5
-66 -11 -86 -14 -20 -3 -42 -8 -50 -10 -8 -3 -30 -7 -49 -10 -19 -3 -120 -21
-225 -40 -201 -37 -217 -40 -280 -51 -22 -4 -85 -15 -140 -25 -180 -33 -270
-50 -295 -54 -14 -2 -36 -7 -50 -10 -14 -3 -43 -8 -64 -11 -21 -3 -48 -7 -60
-10 -12 -3 -34 -7 -51 -10 -40 -7 -160 -29 -335 -61 -80 -15 -152 -28 -160
-29 -8 -1 -33 -6 -55 -10 -47 -9 -40 -8 -220 -40 -77 -14 -153 -28 -170 -31
-16 -3 -64 -12 -105 -19 -84 -16 -123 -23 -160 -30 -14 -3 -36 -7 -50 -10 -14
-2 -52 -9 -85 -15 -33 -5 -73 -12 -90 -15 -16 -3 -79 -15 -140 -26 -60 -12
-121 -23 -135 -25 -14 -2 -36 -7 -50 -9 -14 -3 -36 -7 -50 -10 -93 -16 -231
-40 -470 -84 -151 -28 -349 -64 -440 -80 -91 -17 -226 -41 -300 -55 -74 -14
-200 -37 -280 -51 -208 -37 -259 -47 -355 -65 -27 -5 -63 -12 -80 -15 -16 -2
-57 -10 -90 -16 -33 -6 -71 -13 -85 -15 -27 -4 -88 -16 -105 -19 -5 -2 -26 -5
-45 -9 -19 -3 -96 -17 -170 -30 -74 -14 -146 -27 -160 -30 -14 -2 -79 -14
-145 -26 -66 -12 -130 -24 -143 -26 -54 -10 -69 -12 -107 -19 -22 -4 -101 -18
-175 -32 -74 -14 -145 -27 -157 -29 -52 -9 -71 -13 -133 -24 -36 -7 -74 -14
-85 -15 -19 -4 -68 -13 -280 -50 -49 -9 -101 -18 -115 -21 -14 -2 -54 -10 -90
-17 l-65 -12 -3 -548 c-2 -519 -1 -548 15 -543 10 3 34 8 53 11 19 3 46 8 60
10 14 3 36 7 50 10 14 3 36 7 50 10 14 2 41 7 60 10 19 3 42 8 50 10 8 2 33 6
55 10 32 4 174 30 280 51 11 2 72 13 135 24 63 11 126 22 140 25 14 3 48 9 75
15 28 5 66 12 85 15 19 3 96 17 170 30 138 25 145 27 215 40 22 4 49 9 60 11
11 1 45 7 75 13 30 6 66 12 80 15 14 2 36 7 50 10 14 3 39 7 55 10 17 2 194
34 395 70 201 37 376 69 390 71 14 2 36 6 50 9 30 6 234 44 310 57 30 5 66 11
80 14 23 5 145 27 215 40 138 25 304 55 320 58 11 3 40 8 65 12 54 9 70 12
135 25 28 5 61 11 75 14 14 2 77 13 140 25 63 11 129 23 145 26 17 3 77 14
135 25 111 21 119 22 245 45 44 8 90 17 101 19 12 2 39 7 60 10 22 4 75 13
119 21 44 8 91 16 105 19 14 2 43 7 65 11 22 4 49 9 60 11 11 2 79 15 150 28
72 14 146 27 165 30 19 3 80 14 135 25 55 11 114 21 130 24 17 3 82 14 145 26
63 11 129 23 145 26 38 7 232 43 265 49 14 3 129 24 255 46 127 22 237 43 245
45 14 4 34 8 113 20 17 3 66 12 107 20 41 8 89 17 105 20 63 11 92 16 140 25
28 5 64 12 80 15 42 7 78 14 165 30 41 8 125 23 185 35 61 11 121 22 135 25
13 3 42 7 65 11 22 3 45 7 50 8 18 5 447 83 550 101 17 3 59 10 95 16 36 6 69
15 74 20 10 9 15 1048 6 1075 -3 8 -8 13 -10 10z"/>
<path d="M10818 3805 c-1 -1 -37 -6 -78 -9 -41 -4 -95 -9 -120 -11 -122 -12
-151 -15 -225 -20 -44 -3 -96 -8 -115 -10 -19 -2 -64 -7 -100 -10 -36 -3 -90
-8 -120 -10 -30 -3 -80 -8 -110 -10 -30 -3 -75 -7 -100 -10 -25 -3 -81 -7
-125 -10 -44 -3 -91 -8 -105 -10 -14 -3 -54 -7 -90 -10 -36 -3 -85 -7 -110
-10 -70 -7 -138 -14 -220 -20 -41 -4 -93 -8 -115 -11 -22 -2 -67 -6 -100 -9
-33 -3 -80 -7 -105 -10 -25 -2 -74 -7 -110 -10 -36 -3 -85 -7 -110 -10 -25 -3
-74 -7 -110 -10 -36 -3 -83 -7 -105 -10 -42 -4 -118 -11 -225 -20 -36 -4 -81
-8 -100 -10 -19 -2 -71 -7 -115 -10 -44 -3 -91 -8 -105 -10 -14 -2 -61 -6
-105 -10 -44 -4 -98 -8 -120 -10 -22 -2 -71 -7 -110 -10 -38 -3 -86 -7 -105
-10 -60 -7 -213 -21 -328 -30 -40 -3 -89 -7 -110 -10 -20 -2 -71 -7 -112 -10
-41 -4 -93 -8 -115 -10 -56 -6 -150 -15 -215 -20 -30 -3 -77 -7 -105 -10 -27
-2 -81 -7 -120 -10 -38 -3 -86 -8 -105 -10 -19 -3 -66 -7 -105 -10 -38 -3 -92
-8 -120 -11 -99 -10 -131 -13 -200 -19 -38 -3 -86 -8 -105 -10 -19 -3 -69 -7
-111 -10 -41 -2 -93 -7 -115 -9 -57 -7 -141 -15 -211 -21 -160 -13 -190 -16
-223 -20 -19 -2 -71 -7 -115 -10 -44 -4 -91 -8 -105 -10 -28 -4 -118 -12 -225
-20 -38 -3 -90 -8 -115 -10 -69 -7 -149 -14 -215 -20 -33 -3 -80 -7 -105 -10
-25 -2 -77 -7 -117 -10 -40 -4 -85 -8 -100 -10 -15 -2 -66 -6 -113 -10 -47 -3
-99 -8 -116 -10 -17 -3 -64 -7 -103 -10 -39 -3 -88 -8 -109 -10 -20 -2 -71 -6
-112 -9 -41 -4 -91 -8 -110 -11 -19 -2 -71 -7 -115 -11 -44 -3 -93 -8 -110 -9
-16 -2 -63 -6 -103 -10 -39 -3 -91 -8 -115 -10 -23 -2 -71 -6 -107 -10 -36 -3
-85 -7 -110 -10 -25 -2 -72 -7 -105 -9 -152 -14 -191 -18 -207 -22 -17 -5 -18
-40 -18 -550 l0 -545 33 5 c17 3 61 8 97 11 144 12 186 16 215 20 17 2 66 7
110 10 44 4 94 8 110 9 60 6 181 18 230 22 28 2 73 6 100 9 28 2 79 7 115 10
36 3 83 8 105 10 22 2 74 7 115 10 41 4 86 8 100 10 14 2 59 6 100 10 41 3 95
8 120 10 25 3 70 7 100 10 153 14 254 23 330 30 25 2 72 7 105 10 33 3 80 8
105 10 25 2 79 7 120 10 41 3 91 8 110 10 19 3 69 7 110 11 41 4 89 8 105 9
17 2 64 6 105 10 41 4 89 8 105 10 17 1 66 5 110 9 44 4 96 9 115 11 19 2 69
7 110 10 41 3 91 8 110 10 19 2 89 9 155 15 66 6 140 13 165 15 25 3 73 7 106
10 34 3 79 7 100 9 22 3 71 7 109 11 39 3 86 7 105 10 19 2 71 7 115 11 44 3
94 8 110 9 17 2 66 6 110 10 44 3 91 8 105 10 14 2 59 7 100 10 41 4 91 8 110
10 19 2 71 6 115 10 91 7 139 12 210 20 28 3 79 7 115 10 36 3 85 7 110 10 69
7 139 14 210 20 36 3 85 7 110 10 25 2 74 7 110 10 36 3 85 8 110 10 25 3 74
7 110 10 36 3 85 7 110 10 25 3 70 7 100 10 30 3 75 7 100 10 25 2 73 7 108
10 137 11 189 16 222 20 19 2 69 7 110 10 41 3 98 8 125 12 28 3 66 7 85 8 78
6 197 16 230 21 19 2 64 6 100 9 36 3 81 7 100 9 19 3 71 8 115 11 44 3 98 8
120 10 22 3 67 7 100 10 33 3 84 7 113 10 138 13 264 24 447 40 39 3 84 8 100
10 17 2 66 7 110 10 44 4 98 10 119 14 l40 6 0 538 c1 396 -2 538 -11 541 -6
3 -13 3 -15 1z"/>
<path d="M15907 1223 c-1 -1 -385 -4 -852 -8 -468 -4 -1019 -8 -1225 -10 -206
-2 -690 -6 -1075 -10 -385 -3 -902 -8 -1150 -10 -247 -2 -758 -7 -1135 -10
-377 -3 -894 -8 -1150 -10 -256 -2 -760 -7 -1120 -10 -360 -3 -862 -8 -1115
-10 -630 -6 -1690 -15 -3400 -30 -770 -7 -1339 -13 -1362 -14 -10 -1 -13 -117
-13 -545 l0 -543 318 2 c284 3 1133 10 2262 20 217 2 690 6 1050 9 360 4 885
8 1165 11 281 3 785 7 1120 10 336 3 849 7 1140 10 292 3 782 7 1090 10 308 3
828 7 1155 10 327 3 840 8 1140 10 1045 9 3881 35 4057 38 l71 1 0 543 0 543
-485 -2 c-267 -2 -485 -4 -486 -5z"/>
</g>
</svg>
